<svg width="15" height="15" viewBox="0 0 15 15" fill="none" xmlns="http://www.w3.org/2000/svg">
<mask id="mask0_224_1314" style="mask-type:alpha" maskUnits="userSpaceOnUse" x="0" y="0" width="15" height="15">
<rect width="15" height="15" fill="#D9D9D9"/>
</mask>
<g mask="url(#mask0_224_1314)">
<path d="M3.23093 14.0503C2.76947 14.0503 2.37806 13.8896 2.05671 13.5683C1.73535 13.2469 1.57468 12.8555 1.57468 12.3941V3.85593C1.57468 3.39447 1.73535 3.00306 2.05671 2.68171C2.37806 2.36035 2.76947 2.19968 3.23093 2.19968H3.74999V0.949677H5.20311V2.19968H9.79686V0.949677H11.25V2.19968H11.7691C12.2305 2.19968 12.6219 2.36035 12.9433 2.68171C13.2646 3.00306 13.4253 3.39447 13.4253 3.85593V6.53936C13.4253 6.76947 13.3448 6.96504 13.1837 7.12608C13.0227 7.28702 12.8272 7.36749 12.5972 7.36749C12.3671 7.36749 12.1715 7.28702 12.0105 7.12608C11.8495 6.96504 11.7691 6.76947 11.7691 6.53936V6.24999H3.23093V12.3941H6.81186C7.04395 12.3941 7.23853 12.4745 7.39561 12.6355C7.55259 12.7965 7.63108 12.9921 7.63108 13.2222C7.63108 13.4522 7.55259 13.6477 7.39561 13.8087C7.23853 13.9698 7.04395 14.0503 6.81186 14.0503H3.23093ZM11.4089 14.375C10.5443 14.375 9.80733 14.0703 9.19796 13.4609C8.58858 12.8516 8.2839 12.1146 8.2839 11.25C8.2839 10.3854 8.58858 9.64843 9.19796 9.03905C9.80733 8.42968 10.5443 8.12499 11.4089 8.12499C12.2735 8.12499 13.0105 8.42968 13.6198 9.03905C14.2292 9.64843 14.5339 10.3854 14.5339 11.25C14.5339 12.1146 14.2292 12.8516 13.6198 13.4609C13.0105 14.0703 12.2735 14.375 11.4089 14.375ZM12.4558 12.8226L12.9817 12.288L11.7922 11.0984V9.30436H11.0347V11.3991L12.4558 12.8226Z" fill="#5F738C"/>
</g>
</svg>
