<svg width="24" height="24" viewBox="0 0 24 24" fill="none" xmlns="http://www.w3.org/2000/svg">
<mask id="mask0_220_1516" style="mask-type:alpha" maskUnits="userSpaceOnUse" x="0" y="0" width="24" height="24">
<rect width="24" height="24" fill="#D9D9D9"/>
</mask>
<g mask="url(#mask0_220_1516)">
<path d="M12 8.62574C10.9802 8.62574 10.1138 8.26924 9.401 7.55624C8.688 6.8434 8.3315 5.97499 8.3315 4.95099C8.3315 3.92715 8.688 3.05924 9.401 2.34724C10.1138 1.63524 10.9802 1.27924 12 1.27924C13.0198 1.27924 13.8862 1.63524 14.599 2.34724C15.312 3.05924 15.6685 3.92715 15.6685 4.95099C15.6685 5.97499 15.312 6.8434 14.599 7.55624C13.8862 8.26924 13.0198 8.62574 12 8.62574ZM10.4482 21.1687L5.70325 16.438C5.36075 16.0892 5.092 15.6744 4.897 15.1937C4.70183 14.7129 4.60425 14.1672 4.60425 13.5565C4.60425 12.5053 4.97625 11.6077 5.72025 10.8637C6.46425 10.1197 7.36408 9.74774 8.41975 9.74774C8.91792 9.74774 9.38441 9.85365 9.81925 10.0655C10.2541 10.2772 10.6466 10.5581 10.9967 10.9082L12 11.9115L13.0032 10.9082C13.3409 10.5706 13.7302 10.2927 14.1712 10.0747C14.6124 9.85674 15.0821 9.74774 15.5802 9.74774C16.6359 9.74774 17.5373 10.1197 18.2845 10.8637C19.0315 11.6077 19.405 12.5053 19.405 13.5565C19.405 14.1672 19.3059 14.7129 19.1077 15.1937C18.9096 15.6744 18.6392 16.0892 18.2968 16.438L13.5517 21.1687C13.3296 21.3794 13.0846 21.537 12.8167 21.6415C12.5489 21.746 12.2764 21.7982 11.9992 21.7982C11.7219 21.7982 11.4496 21.746 11.1822 21.6415C10.9147 21.537 10.6701 21.3794 10.4482 21.1687Z" fill="#5F738C"/>
</g>
</svg>
