<svg width="37" height="300" viewBox="0 0 37 300" fill="none" xmlns="http://www.w3.org/2000/svg">
<path opacity="0.5" d="M6.55182 136.38C6.08487 136.433 5.72315 136.65 5.46666 137.032C5.20688 137.413 5.07699 137.893 5.07699 138.472C5.07699 138.886 5.14275 139.245 5.27429 139.547C5.40253 139.85 5.58011 140.085 5.80701 140.253C6.03061 140.417 6.28546 140.499 6.57155 140.499C6.8116 140.499 7.01877 140.443 7.19306 140.331C7.36734 140.216 7.51367 140.067 7.63206 139.883C7.74715 139.695 7.84416 139.495 7.92308 139.281C7.99871 139.067 8.06119 138.862 8.11051 138.664L8.36701 137.678C8.44593 137.355 8.5528 137.025 8.68762 136.686C8.82245 136.348 9.00002 136.034 9.22034 135.744C9.44066 135.455 9.7136 135.221 10.0391 135.044C10.3647 134.863 10.7544 134.772 11.2082 134.772C11.7803 134.772 12.2884 134.92 12.7323 135.216C13.1763 135.509 13.5265 135.935 13.783 136.494C14.0395 137.05 14.1677 137.722 14.1677 138.511C14.1677 139.268 14.0477 139.922 13.8076 140.475C13.5676 141.027 13.2272 141.459 12.7866 141.772C12.3427 142.084 11.8165 142.257 11.2082 142.29L11.2082 140.761C11.5732 140.731 11.8774 140.613 12.1207 140.405C12.3607 140.195 12.54 139.927 12.6583 139.601C12.7734 139.273 12.831 138.913 12.831 138.521C12.831 138.09 12.7636 137.707 12.6287 137.372C12.4906 137.033 12.2999 136.767 12.0566 136.573C11.8099 136.379 11.5222 136.282 11.1934 136.282C10.8941 136.282 10.6491 136.367 10.4584 136.538C10.2677 136.706 10.1098 136.935 9.98489 137.224C9.85993 137.51 9.74977 137.834 9.65441 138.196L9.32886 139.389C9.10854 140.198 8.78463 140.84 8.35714 141.313C7.92965 141.783 7.36405 142.018 6.66034 142.018C6.0783 142.018 5.57024 141.861 5.13618 141.545C4.70211 141.229 4.36505 140.802 4.125 140.262C3.88166 139.723 3.75999 139.115 3.75999 138.437C3.75999 137.753 3.88002 137.15 4.12007 136.627C4.36012 136.101 4.6906 135.687 5.11151 135.384C5.52914 135.082 6.00924 134.924 6.55182 134.911L6.55182 136.38ZM14.1677 130.865C14.1677 131.345 14.0789 131.779 13.9013 132.167C13.7205 132.555 13.4591 132.862 13.1171 133.089C12.7751 133.313 12.3558 133.425 11.8593 133.425C11.4318 133.425 11.0799 133.342 10.8037 133.178C10.5275 133.014 10.3088 132.792 10.1477 132.512C9.98653 132.233 9.86486 131.92 9.78265 131.575C9.70044 131.23 9.63797 130.878 9.59522 130.519C9.5426 130.066 9.49985 129.697 9.46697 129.414C9.4308 129.132 9.37325 128.926 9.29433 128.798C9.21541 128.67 9.08716 128.606 8.90959 128.606L8.87506 128.606C8.44428 128.606 8.11051 128.727 7.87375 128.971C7.63699 129.211 7.51861 129.569 7.51861 130.046C7.51861 130.542 7.62877 130.934 7.84909 131.22C8.06612 131.503 8.30782 131.698 8.57418 131.807L8.25849 133.193C7.79812 133.028 7.42653 132.788 7.14373 132.473C6.85764 132.154 6.65047 131.787 6.52223 131.373C6.39069 130.958 6.32492 130.523 6.32492 130.066C6.32492 129.763 6.3611 129.442 6.43344 129.104C6.5025 128.762 6.63074 128.443 6.81818 128.147C7.00562 127.848 7.27362 127.603 7.62219 127.412C7.96747 127.221 8.41633 127.126 8.96878 127.126L14 127.126L14 128.566L12.9642 128.566L12.9642 128.625C13.1549 128.721 13.3423 128.864 13.5265 129.054C13.7106 129.245 13.8635 129.49 13.9852 129.789C14.1069 130.089 14.1677 130.447 14.1677 130.865ZM12.9839 130.544C12.9839 130.136 12.9033 129.788 12.7422 129.498C12.5811 129.206 12.3706 128.984 12.1108 128.832C11.8478 128.678 11.5666 128.601 11.2674 128.601L10.2907 128.601C10.3433 128.653 10.3926 128.755 10.4387 128.906C10.4814 129.054 10.5193 129.224 10.5521 129.414C10.5817 129.605 10.6097 129.791 10.636 129.972C10.659 130.153 10.6787 130.304 10.6952 130.426C10.7314 130.712 10.7922 130.973 10.8777 131.21C10.9632 131.443 11.0865 131.631 11.2476 131.772C11.4055 131.91 11.6159 131.979 11.879 131.979C12.244 131.979 12.5202 131.845 12.7077 131.575C12.8918 131.305 12.9839 130.962 12.9839 130.544ZM9.5015 123.687L14 123.687L14 125.161L6.42358 125.161L6.42358 123.746L7.65672 123.746L7.65672 123.652C7.25554 123.478 6.93327 123.205 6.68993 122.833C6.44659 122.458 6.32492 121.986 6.32492 121.418C6.32492 120.901 6.43344 120.449 6.65047 120.061C6.86422 119.673 7.18319 119.372 7.60739 119.158C8.03159 118.945 8.55609 118.838 9.18088 118.838L14 118.838L14 120.313L9.35845 120.313C8.80929 120.313 8.38016 120.456 8.07105 120.742C7.75866 121.028 7.60246 121.421 7.60246 121.921C7.60246 122.263 7.67645 122.567 7.82442 122.833C7.9724 123.096 8.18943 123.305 8.47552 123.46C8.75832 123.611 9.10032 123.687 9.5015 123.687ZM6.42357 113.323L7.60739 113.323L7.60739 117.462L6.42358 117.462L6.42357 113.323ZM4.60839 116.352L4.60839 114.877L11.7754 114.877C12.0615 114.877 12.2769 114.834 12.4216 114.749C12.563 114.663 12.66 114.553 12.7126 114.418C12.7619 114.28 12.7866 114.131 12.7866 113.969C12.7866 113.851 12.7784 113.747 12.7619 113.659C12.7455 113.57 12.7323 113.501 12.7225 113.451L13.9408 113.185C13.9737 113.271 14.0066 113.392 14.0395 113.55C14.0756 113.708 14.0954 113.905 14.0987 114.142C14.1052 114.53 14.0362 114.892 13.8915 115.227C13.7468 115.563 13.5232 115.834 13.2207 116.041C12.9181 116.248 12.5383 116.352 12.0812 116.352L4.60839 116.352ZM14.1677 109.487C14.1677 109.967 14.0789 110.401 13.9013 110.789C13.7205 111.177 13.4591 111.485 13.1171 111.711C12.7751 111.935 12.3558 112.047 11.8593 112.047C11.4318 112.047 11.0799 111.965 10.8037 111.8C10.5275 111.636 10.3088 111.414 10.1477 111.134C9.98653 110.855 9.86486 110.542 9.78265 110.197C9.70044 109.852 9.63796 109.5 9.59522 109.142C9.5426 108.688 9.49985 108.32 9.46697 108.037C9.4308 107.754 9.37325 107.548 9.29433 107.42C9.21541 107.292 9.08716 107.228 8.90959 107.228L8.87506 107.228C8.44428 107.228 8.11051 107.349 7.87375 107.593C7.63699 107.833 7.5186 108.191 7.5186 108.668C7.5186 109.165 7.62877 109.556 7.84909 109.842C8.06612 110.125 8.30782 110.321 8.57417 110.429L8.25849 111.815C7.79812 111.651 7.42653 111.411 7.14373 111.095C6.85764 110.776 6.65047 110.409 6.52223 109.995C6.39069 109.581 6.32492 109.145 6.32492 108.688C6.32492 108.385 6.3611 108.065 6.43344 107.726C6.5025 107.384 6.63074 107.065 6.81818 106.769C7.00562 106.47 7.27362 106.225 7.62219 106.034C7.96747 105.843 8.41633 105.748 8.96878 105.748L14 105.748L14 107.188L12.9642 107.188L12.9642 107.248C13.1549 107.343 13.3423 107.486 13.5265 107.677C13.7106 107.867 13.8635 108.112 13.9852 108.412C14.1069 108.711 14.1677 109.069 14.1677 109.487ZM12.9839 109.166C12.9839 108.759 12.9033 108.41 12.7422 108.121C12.5811 107.828 12.3706 107.606 12.1108 107.455C11.8478 107.3 11.5666 107.223 11.2674 107.223L10.2907 107.223C10.3433 107.275 10.3926 107.377 10.4387 107.529C10.4814 107.677 10.5193 107.846 10.5521 108.037C10.5817 108.227 10.6097 108.413 10.636 108.594C10.659 108.775 10.6787 108.926 10.6952 109.048C10.7314 109.334 10.7922 109.595 10.8777 109.832C10.9632 110.066 11.0865 110.253 11.2476 110.394C11.4055 110.533 11.6159 110.602 11.879 110.602C12.244 110.602 12.5202 110.467 12.7077 110.197C12.8918 109.928 12.9839 109.584 12.9839 109.166ZM14 99.9892L3.8981 99.9892L3.8981 98.4651L12.6879 98.4651L12.6879 93.8877L14 93.8877L14 99.9892ZM10.858 87.4679L6.42357 87.4679L6.42357 85.9882L14 85.9882L14 87.4383L12.6879 87.4383L12.6879 87.5172C13.0924 87.6915 13.4295 87.971 13.6991 88.3558C13.9655 88.7372 14.0986 89.2124 14.0986 89.7813C14.0986 90.268 13.9918 90.6988 13.778 91.0736C13.561 91.4452 13.2404 91.7379 12.8162 91.9516C12.392 92.1621 11.8675 92.2673 11.2427 92.2673L6.42357 92.2673L6.42357 90.7925L11.0651 90.7925C11.5814 90.7925 11.9924 90.6494 12.2983 90.3633C12.6041 90.0773 12.757 89.7057 12.757 89.2486C12.757 88.9724 12.6879 88.6978 12.5498 88.4248C12.4117 88.1486 12.2029 87.9201 11.9234 87.7392C11.6439 87.5551 11.2887 87.4646 10.858 87.4679ZM14 84.1643L12.9888 84.1643L7.7751 80.0604L7.70604 80.0604L7.70604 84.0312L6.42357 84.0312L6.42357 78.2206L7.49887 78.2206L12.6485 82.1666L12.7175 82.1666L12.7175 78.0825L14 78.0825L14 84.1643ZM14 76.3425L6.42357 76.3425L6.42357 74.8677L14 74.8677L14 76.3425ZM5.25455 75.5977C5.25455 75.8542 5.16906 76.0745 4.99806 76.2587C4.82378 76.4395 4.61661 76.53 4.37656 76.53C4.13322 76.53 3.92605 76.4395 3.75505 76.2587C3.58077 76.0745 3.49363 75.8542 3.49363 75.5977C3.49363 75.3412 3.58077 75.1225 3.75505 74.9417C3.92605 74.7575 4.13322 74.6654 4.37656 74.6654C4.61661 74.6654 4.82378 74.7575 4.99806 74.9417C5.16906 75.1225 5.25455 75.3412 5.25455 75.5977ZM14.1677 70.6787C14.1677 71.1588 14.0789 71.5929 13.9013 71.9809C13.7205 72.3689 13.4591 72.6764 13.1171 72.9033C12.7751 73.1269 12.3558 73.2387 11.8593 73.2387C11.4318 73.2387 11.0799 73.1565 10.8037 72.9921C10.5275 72.8277 10.3088 72.6057 10.1477 72.3262C9.98653 72.0467 9.86486 71.7343 9.78265 71.389C9.70044 71.0437 9.63796 70.6918 9.59521 70.3334C9.5426 69.8796 9.49985 69.5113 9.46697 69.2285C9.4308 68.9457 9.37325 68.7402 9.29433 68.612C9.21541 68.4837 9.08716 68.4196 8.90959 68.4196L8.87506 68.4196C8.44428 68.4196 8.11051 68.5412 7.87375 68.7846C7.63698 69.0246 7.5186 69.3831 7.5186 69.8599C7.5186 70.3564 7.62876 70.7478 7.84909 71.0338C8.06612 71.3166 8.30781 71.5123 8.57417 71.6208L8.25849 73.0069C7.79812 72.8424 7.42653 72.6024 7.14373 72.2867C6.85764 71.9677 6.65047 71.6011 6.52222 71.1868C6.39069 70.7724 6.32492 70.3367 6.32492 69.8796C6.32492 69.5771 6.36109 69.2565 6.43344 68.9178C6.50249 68.5758 6.63074 68.2568 6.81818 67.9609C7.00562 67.6616 7.27362 67.4166 7.62219 67.2259C7.96747 67.0352 8.41633 66.9398 8.96878 66.9398L14 66.9398L14 68.3801L12.9642 68.3801L12.9642 68.4393C13.1549 68.5347 13.3423 68.6777 13.5265 68.8684C13.7106 69.0592 13.8635 69.3042 13.9852 69.6034C14.1069 69.9026 14.1677 70.2611 14.1677 70.6787ZM12.9839 70.3581C12.9839 69.9503 12.9033 69.6018 12.7422 69.3124C12.5811 69.0197 12.3706 68.7977 12.1108 68.6465C11.8478 68.4919 11.5666 68.4146 11.2674 68.4146L10.2907 68.4146C10.3433 68.4673 10.3926 68.5692 10.4387 68.7205C10.4814 68.8684 10.5192 69.0378 10.5521 69.2285C10.5817 69.4192 10.6097 69.605 10.636 69.7859C10.659 69.9668 10.6787 70.118 10.6952 70.2397C10.7313 70.5258 10.7922 70.7872 10.8777 71.024C10.9632 71.2575 11.0865 71.4449 11.2476 71.5863C11.4055 71.7244 11.6159 71.7935 11.879 71.7935C12.244 71.7935 12.5202 71.6586 12.7077 71.389C12.8918 71.1193 12.9839 70.7757 12.9839 70.3581ZM14.148 58.4632C14.148 59.0748 13.9918 59.6207 13.6794 60.1008C13.3637 60.5776 12.9148 60.9525 12.3328 61.2254C11.7475 61.4951 11.0454 61.6299 10.2266 61.6299C9.40778 61.6299 8.70735 61.4934 8.12531 61.2205C7.54327 60.9443 7.09769 60.5661 6.78858 60.086C6.47948 59.6059 6.32492 59.0617 6.32492 58.4533C6.32492 57.9831 6.40384 57.6049 6.56168 57.3188C6.71624 57.0295 6.8971 56.8058 7.10427 56.648C7.31143 56.4869 7.49394 56.3619 7.65178 56.2731L7.65178 56.1843L3.8981 56.1843L3.8981 54.7095L14 54.7095L14 56.1498L12.8211 56.1498L12.8211 56.2731C12.9822 56.3619 13.1664 56.4902 13.3736 56.6579C13.5807 56.8223 13.7616 57.0492 13.9161 57.3386C14.0707 57.6279 14.148 58.0028 14.148 58.4632ZM12.8902 58.1376C12.8902 57.7134 12.7784 57.355 12.5548 57.0623C12.3279 56.7664 12.0138 56.5428 11.6126 56.3915C11.2115 56.237 10.7445 56.1597 10.2118 56.1597C9.68564 56.1597 9.22527 56.2353 8.83067 56.3866C8.43606 56.5378 8.1286 56.7598 7.90828 57.0525C7.68795 57.3451 7.57779 57.7069 7.57779 58.1376C7.57779 58.5816 7.69289 58.9515 7.92307 59.2475C8.15326 59.5434 8.4673 59.767 8.86519 59.9183C9.26309 60.0663 9.71195 60.1403 10.2118 60.1403C10.7182 60.1403 11.1736 60.0646 11.5781 59.9134C11.9826 59.7621 12.3032 59.5385 12.54 59.2425C12.7734 58.9433 12.8902 58.575 12.8902 58.1376ZM14.1529 49.4132C14.1529 50.1235 13.9901 50.7433 13.6646 51.2727C13.339 51.8022 12.8836 52.2132 12.2983 52.5059C11.7129 52.7986 11.0289 52.9449 10.2463 52.9449C9.46039 52.9449 8.77312 52.7986 8.1845 52.5059C7.59588 52.2132 7.13879 51.8022 6.81325 51.2727C6.4877 50.7433 6.32492 50.1235 6.32492 49.4132C6.32492 48.7029 6.4877 48.083 6.81325 47.5536C7.13879 47.0242 7.59588 46.6131 8.1845 46.3204C8.77312 46.0278 9.46039 45.8814 10.2463 45.8814C11.0289 45.8814 11.7129 46.0278 12.2983 46.3204C12.8836 46.6131 13.339 47.0242 13.6646 47.5536C13.9901 48.083 14.1529 48.7029 14.1529 49.4132ZM12.9148 49.4082C12.9148 48.9479 12.7932 48.5664 12.5498 48.2639C12.3065 47.9613 11.9826 47.7377 11.5781 47.5931C11.1736 47.4451 10.7281 47.3711 10.2414 47.3711C9.75799 47.3711 9.31406 47.4451 8.90959 47.5931C8.50183 47.7377 8.17463 47.9613 7.92801 48.2639C7.68138 48.5664 7.55806 48.9479 7.55806 49.4082C7.55806 49.8719 7.68138 50.2566 7.92801 50.5625C8.17463 50.865 8.50183 51.0902 8.90959 51.2382C9.31406 51.3829 9.75799 51.4553 10.2414 51.4553C10.7281 51.4553 11.1736 51.3829 11.5781 51.2382C11.9826 51.0902 12.3065 50.865 12.5498 50.5625C12.7932 50.2566 12.9148 49.8719 12.9148 49.4082ZM3.8981 38.9167L14 38.9167L14 40.4408L3.8981 40.4408L3.8981 38.9167ZM6.42357 33.2787L7.60739 33.2787L7.60739 37.4172L6.42357 37.4172L6.42357 33.2787ZM4.60839 36.3073L4.60839 34.8325L11.7754 34.8325C12.0615 34.8325 12.2769 34.7897 12.4216 34.7042C12.563 34.6187 12.66 34.5086 12.7126 34.3738C12.7619 34.2357 12.7866 34.086 12.7866 33.9249C12.7866 33.8065 12.7784 33.7029 12.7619 33.6141C12.7455 33.5254 12.7323 33.4563 12.7225 33.407L13.9408 33.1406C13.9737 33.2261 14.0066 33.3478 14.0395 33.5056C14.0756 33.6635 14.0954 33.8608 14.0986 34.0975C14.1052 34.4856 14.0362 34.8473 13.8915 35.1827C13.7468 35.5181 13.5232 35.7894 13.2206 35.9966C12.9181 36.2037 12.5383 36.3073 12.0812 36.3073L4.60839 36.3073ZM14.1677 29.4424C14.1677 29.9225 14.0789 30.3566 13.9013 30.7446C13.7205 31.1327 13.4591 31.4401 13.1171 31.667C12.7751 31.8906 12.3558 32.0024 11.8593 32.0024C11.4318 32.0024 11.0799 31.9202 10.8037 31.7558C10.5275 31.5914 10.3088 31.3694 10.1477 31.0899C9.98653 30.8104 9.86486 30.498 9.78265 30.1527C9.70044 29.8074 9.63796 29.4556 9.59521 29.0971C9.5426 28.6434 9.49985 28.2751 9.46697 27.9923C9.43079 27.7095 9.37325 27.5039 9.29433 27.3757C9.2154 27.2474 9.08716 27.1833 8.90959 27.1833L8.87506 27.1833C8.44428 27.1833 8.11051 27.305 7.87375 27.5483C7.63698 27.7884 7.5186 28.1468 7.5186 28.6236C7.5186 29.1202 7.62876 29.5115 7.84908 29.7976C8.06612 30.0804 8.30781 30.276 8.57417 30.3845L8.25849 31.7706C7.79811 31.6062 7.42653 31.3661 7.14373 31.0504C6.85764 30.7315 6.65047 30.3648 6.52222 29.9505C6.39069 29.5361 6.32492 29.1004 6.32492 28.6434C6.32492 28.3408 6.36109 28.0202 6.43344 27.6815C6.50249 27.3395 6.63074 27.0205 6.81818 26.7246C7.00561 26.4253 7.27362 26.1804 7.62219 25.9896C7.96746 25.7989 8.41633 25.7035 8.96878 25.7035L14 25.7035L14 27.1439L12.9642 27.1439L12.9642 27.203C13.1549 27.2984 13.3423 27.4415 13.5265 27.6322C13.7106 27.8229 13.8635 28.0679 13.9852 28.3671C14.1069 28.6664 14.1677 29.0248 14.1677 29.4424ZM12.9839 29.1218C12.9839 28.7141 12.9033 28.3655 12.7422 28.0761C12.5811 27.7834 12.3706 27.5615 12.1108 27.4102C11.8478 27.2557 11.5666 27.1784 11.2674 27.1784L10.2907 27.1784C10.3433 27.231 10.3926 27.3329 10.4387 27.4842C10.4814 27.6322 10.5192 27.8015 10.5521 27.9923C10.5817 28.183 10.6097 28.3688 10.636 28.5496C10.659 28.7305 10.6787 28.8818 10.6952 29.0034C10.7313 29.2895 10.7922 29.5509 10.8777 29.7877C10.9632 30.0212 11.0865 30.2086 11.2476 30.35C11.4055 30.4881 11.6159 30.5572 11.879 30.5572C12.244 30.5572 12.5202 30.4224 12.7077 30.1527C12.8918 29.8831 12.9839 29.5394 12.9839 29.1218ZM9.50149 22.2643L14 22.2643L14 23.7392L6.42357 23.7392L6.42357 22.3235L7.65671 22.3235L7.65671 22.2298C7.25553 22.0555 6.93327 21.7826 6.68993 21.411C6.44659 21.0361 6.32492 20.5642 6.32492 19.9953C6.32492 19.4791 6.43344 19.0269 6.65047 18.6389C6.86421 18.2508 7.18319 17.95 7.60739 17.7362C8.03159 17.5225 8.55608 17.4156 9.18088 17.4156L14 17.4156L14 18.8904L9.35845 18.8904C8.80929 18.8904 8.38016 19.0335 8.07105 19.3196C7.75865 19.6057 7.60245 19.9986 7.60245 20.4985C7.60245 20.8404 7.67644 21.1446 7.82442 21.411C7.9724 21.6741 8.18943 21.8829 8.47552 22.0374C8.75832 22.1887 9.10031 22.2643 9.50149 22.2643ZM9.50149 13.9628L14 13.9628L14 15.4376L3.8981 15.4376L3.8981 13.9825L7.65671 13.9825L7.65671 13.8888C7.24895 13.7112 6.92505 13.4399 6.685 13.0749C6.44494 12.7099 6.32492 12.2331 6.32492 11.6445C6.32492 11.1249 6.43179 10.6711 6.64554 10.2831C6.85928 9.89179 7.17825 9.58926 7.60245 9.37551C8.02337 9.15848 8.54951 9.04996 9.18088 9.04996L14 9.04996L14 10.5248L9.35845 10.5248C8.80271 10.5248 8.37193 10.6678 8.06612 10.9539C7.75701 11.24 7.60245 11.6379 7.60245 12.1476C7.60245 12.4962 7.67644 12.8086 7.82442 13.0848C7.9724 13.3577 8.18943 13.5731 8.47552 13.731C8.75832 13.8855 9.10031 13.9628 9.50149 13.9628ZM16.8412 6.4209C16.8412 6.64122 16.8231 6.84181 16.7869 7.02268C16.754 7.20354 16.7178 7.33836 16.6784 7.42715L15.4699 7.072C15.5422 6.80235 15.5735 6.5623 15.5636 6.35185C15.5538 6.14139 15.4748 5.9556 15.3269 5.79447C15.1789 5.63005 14.9372 5.48536 14.6018 5.3604L14.0986 5.1779L6.42357 7.95L6.42357 6.37158L12.3032 4.45281L12.3032 4.37389L6.42357 2.45512L6.42357 0.871764L15.0112 3.99408C15.4058 4.13877 15.7395 4.32292 16.0125 4.54653C16.2887 4.77014 16.4959 5.0365 16.634 5.3456C16.7721 5.65471 16.8412 6.01314 16.8412 6.4209ZM26.2733 136.331L26.5101 137.668C26.3391 137.724 26.1763 137.813 26.0217 137.934C25.8672 138.053 25.7406 138.214 25.6419 138.418C25.5433 138.622 25.4939 138.876 25.4939 139.182C25.4939 139.6 25.5877 139.948 25.7751 140.228C25.9592 140.507 26.1977 140.647 26.4903 140.647C26.7435 140.647 26.9474 140.553 27.102 140.366C27.2565 140.179 27.3831 139.876 27.4818 139.458L27.758 138.255C27.9191 137.558 28.1674 137.038 28.5028 136.696C28.8382 136.354 29.2739 136.183 29.8099 136.183C30.2637 136.183 30.6682 136.315 31.0234 136.578C31.3752 136.838 31.6514 137.201 31.852 137.668C32.0526 138.132 32.1529 138.669 32.1529 139.281C32.1529 140.129 31.972 140.821 31.6103 141.357C31.2453 141.893 30.7274 142.222 30.0566 142.344L29.8395 140.918C30.2111 140.83 30.4923 140.647 30.683 140.371C30.8704 140.095 30.9642 139.735 30.9642 139.291C30.9642 138.807 30.8639 138.421 30.6633 138.132C30.4594 137.842 30.2111 137.697 29.9185 137.697C29.6817 137.697 29.4827 137.786 29.3216 137.964C29.1605 138.138 29.0388 138.406 28.9566 138.768L28.6754 140.05C28.5143 140.757 28.2578 141.28 27.906 141.619C27.5541 141.954 27.1085 142.122 26.5692 142.122C26.122 142.122 25.7307 141.997 25.3953 141.747C25.0599 141.497 24.7985 141.152 24.611 140.711C24.4203 140.271 24.3249 139.766 24.3249 139.197C24.3249 138.378 24.5025 137.734 24.8576 137.263C25.2095 136.793 25.6814 136.482 26.2733 136.331ZM32.1529 131.296C32.1529 132.043 31.9934 132.686 31.6745 133.225C31.3522 133.761 30.9 134.175 30.318 134.468C29.7327 134.757 29.047 134.902 28.2611 134.902C27.4851 134.902 26.8011 134.757 26.2092 134.468C25.6173 134.175 25.1552 133.767 24.8231 133.245C24.491 132.718 24.3249 132.104 24.3249 131.4C24.3249 130.972 24.3956 130.558 24.537 130.157C24.6784 129.756 24.9004 129.396 25.2029 129.077C25.5055 128.758 25.8984 128.506 26.3818 128.322C26.8619 128.138 27.4456 128.046 28.1329 128.046L28.6557 128.046L28.6557 134.068L27.5508 134.068L27.5508 129.491C27.1628 129.491 26.8192 129.57 26.5199 129.728C26.2174 129.886 25.979 130.108 25.8047 130.394C25.6304 130.676 25.5433 131.009 25.5433 131.39C25.5433 131.804 25.6452 132.166 25.8491 132.475C26.0497 132.781 26.3127 133.018 26.6383 133.185C26.9606 133.35 27.3108 133.432 27.6889 133.432L28.5521 133.432C29.0585 133.432 29.4893 133.343 29.8445 133.166C30.1996 132.985 30.4709 132.733 30.6583 132.411C30.8425 132.089 30.9346 131.712 30.9346 131.281C30.9346 131.002 30.8951 130.747 30.8162 130.517C30.734 130.287 30.6123 130.088 30.4512 129.92C30.29 129.752 30.0911 129.624 29.8543 129.535L30.1059 128.139C30.5169 128.251 30.877 128.452 31.1861 128.741C31.4919 129.027 31.7304 129.387 31.9013 129.821C32.0691 130.252 32.1529 130.744 32.1529 131.296ZM32.148 123.573C32.148 124.185 31.9918 124.731 31.6794 125.211C31.3637 125.688 30.9148 126.062 30.3328 126.335C29.7475 126.605 29.0454 126.74 28.2266 126.74C27.4078 126.74 26.7074 126.603 26.1253 126.33C25.5433 126.054 25.0977 125.676 24.7886 125.196C24.4795 124.716 24.3249 124.172 24.3249 123.563C24.3249 123.093 24.4038 122.715 24.5617 122.429C24.7162 122.139 24.8971 121.916 25.1043 121.758C25.3114 121.597 25.4939 121.472 25.6518 121.383L25.6518 121.294L21.8981 121.294L21.8981 119.819L32 119.819L32 121.26L30.8211 121.26L30.8211 121.383C30.9822 121.472 31.1664 121.6 31.3736 121.768C31.5807 121.932 31.7616 122.159 31.9161 122.448C32.0707 122.738 32.148 123.113 32.148 123.573ZM30.8902 123.248C30.8902 122.823 30.7784 122.465 30.5548 122.172C30.3279 121.876 30.0138 121.653 29.6126 121.501C29.2115 121.347 28.7445 121.27 28.2118 121.27C27.6856 121.27 27.2253 121.345 26.8307 121.496C26.4361 121.648 26.1286 121.87 25.9083 122.162C25.688 122.455 25.5778 122.817 25.5778 123.248C25.5778 123.691 25.6929 124.061 25.9231 124.357C26.1533 124.653 26.4673 124.877 26.8652 125.028C27.2631 125.176 27.712 125.25 28.2118 125.25C28.7182 125.25 29.1736 125.175 29.5781 125.023C29.9826 124.872 30.3032 124.648 30.54 124.352C30.7734 124.053 30.8902 123.685 30.8902 123.248ZM32.1529 114.449C32.1529 115.196 31.9934 115.838 31.6744 116.378C31.3522 116.914 30.9 117.328 30.318 117.621C29.7327 117.91 29.047 118.055 28.2611 118.055C27.4851 118.055 26.8011 117.91 26.2092 117.621C25.6173 117.328 25.1552 116.92 24.8231 116.397C24.491 115.871 24.3249 115.256 24.3249 114.553C24.3249 114.125 24.3956 113.711 24.537 113.31C24.6784 112.908 24.9004 112.548 25.2029 112.229C25.5055 111.91 25.8984 111.659 26.3818 111.475C26.8619 111.291 27.4456 111.199 28.1329 111.199L28.6557 111.199L28.6557 117.221L27.5508 117.221L27.5508 112.644C27.1628 112.644 26.8192 112.723 26.5199 112.881C26.2174 113.038 25.979 113.26 25.8047 113.546C25.6304 113.829 25.5433 114.161 25.5433 114.543C25.5433 114.957 25.6452 115.319 25.8491 115.628C26.0497 115.934 26.3127 116.171 26.6383 116.338C26.9606 116.503 27.3108 116.585 27.6889 116.585L28.5521 116.585C29.0585 116.585 29.4893 116.496 29.8445 116.319C30.1996 116.138 30.4709 115.886 30.6583 115.564C30.8425 115.242 30.9346 114.865 30.9346 114.434C30.9346 114.155 30.8951 113.9 30.8162 113.67C30.734 113.44 30.6123 113.241 30.4512 113.073C30.29 112.905 30.0911 112.777 29.8543 112.688L30.1059 111.292C30.5169 111.404 30.877 111.605 31.1861 111.894C31.4919 112.18 31.7304 112.54 31.9013 112.974C32.0691 113.405 32.1529 113.897 32.1529 114.449Z" fill="#252A31"/>
<path opacity="0.5" d="M14 298.037L14 299.655L3.8981 296.019L3.8981 294.258L14 290.623L14 292.241L5.73302 295.097L5.73302 295.176L14 298.037ZM10.0441 297.766L10.0441 292.517L11.3265 292.517L11.3265 297.766L10.0441 297.766ZM14 289.283L6.42358 289.283L6.42358 287.857L7.62712 287.857L7.62712 287.778C7.21936 287.64 6.89875 287.397 6.66527 287.048C6.42851 286.696 6.31013 286.299 6.31013 285.855C6.31013 285.763 6.31341 285.654 6.31999 285.529C6.32657 285.401 6.33479 285.301 6.34465 285.228L7.75537 285.228C7.73893 285.287 7.72084 285.393 7.70111 285.544C7.67809 285.695 7.66658 285.846 7.66658 285.998C7.66658 286.346 7.74057 286.657 7.88855 286.93C8.03324 287.2 8.23547 287.413 8.49525 287.571C8.75175 287.729 9.04441 287.808 9.37325 287.808L14 287.808L14 289.283ZM14.1677 281.815C14.1677 282.295 14.0789 282.729 13.9013 283.117C13.7205 283.505 13.4591 283.813 13.1171 284.039C12.7751 284.263 12.3558 284.375 11.8593 284.375C11.4318 284.375 11.0799 284.293 10.8037 284.128C10.5275 283.964 10.3088 283.742 10.1477 283.462C9.98653 283.183 9.86486 282.87 9.78265 282.525C9.70044 282.18 9.63797 281.828 9.59522 281.47C9.5426 281.016 9.49985 280.647 9.46697 280.365C9.4308 280.082 9.37325 279.876 9.29433 279.748C9.21541 279.62 9.08716 279.556 8.90959 279.556L8.87506 279.556C8.44428 279.556 8.11051 279.677 7.87375 279.921C7.63699 280.161 7.51861 280.519 7.51861 280.996C7.51861 281.493 7.62877 281.884 7.84909 282.17C8.06612 282.453 8.30782 282.648 8.57418 282.757L8.25849 284.143C7.79812 283.979 7.42653 283.739 7.14373 283.423C6.85764 283.104 6.65047 282.737 6.52223 282.323C6.39069 281.909 6.32492 281.473 6.32492 281.016C6.32492 280.713 6.3611 280.393 6.43344 280.054C6.5025 279.712 6.63074 279.393 6.81818 279.097C7.00562 278.798 7.27362 278.553 7.62219 278.362C7.96747 278.171 8.41633 278.076 8.96878 278.076L14 278.076L14 279.516L12.9642 279.516L12.9642 279.575C13.1549 279.671 13.3423 279.814 13.5265 280.005C13.7106 280.195 13.8635 280.44 13.9852 280.74C14.1069 281.039 14.1677 281.397 14.1677 281.815ZM12.9839 281.494C12.9839 281.086 12.9033 280.738 12.7422 280.449C12.5811 280.156 12.3706 279.934 12.1108 279.783C11.8478 279.628 11.5666 279.551 11.2674 279.551L10.2907 279.551C10.3433 279.603 10.3926 279.705 10.4387 279.857C10.4814 280.005 10.5193 280.174 10.5521 280.365C10.5817 280.555 10.6097 280.741 10.636 280.922C10.659 281.103 10.6787 281.254 10.6952 281.376C10.7314 281.662 10.7922 281.923 10.8777 282.16C10.9632 282.394 11.0865 282.581 11.2476 282.722C11.4055 282.861 11.6159 282.93 11.879 282.93C12.244 282.93 12.5202 282.795 12.7077 282.525C12.8918 282.255 12.9839 281.912 12.9839 281.494ZM14.1529 272.92C14.1529 273.654 13.9868 274.285 13.6547 274.814C13.3193 275.34 12.8573 275.745 12.2687 276.028C11.68 276.311 11.0059 276.452 10.2463 276.452C9.47683 276.452 8.79778 276.307 8.20916 276.018C7.61726 275.728 7.15524 275.321 6.82311 274.795C6.49099 274.268 6.32492 273.649 6.32492 272.935C6.32492 272.36 6.4318 271.847 6.64554 271.396C6.856 270.946 7.15195 270.582 7.5334 270.306C7.91485 270.026 8.36043 269.86 8.87013 269.808L8.87013 271.243C8.51498 271.322 8.20916 271.503 7.95267 271.786C7.69618 272.065 7.56793 272.44 7.56793 272.91C7.56793 273.321 7.67645 273.681 7.89348 273.991C8.10722 274.296 8.41304 274.535 8.81094 274.706C9.20554 274.877 9.67249 274.962 10.2118 274.962C10.7642 274.962 11.241 274.878 11.6422 274.711C12.0434 274.543 12.3542 274.306 12.5745 274C12.7948 273.691 12.905 273.328 12.905 272.91C12.905 272.631 12.854 272.378 12.7521 272.151C12.6468 271.921 12.4972 271.728 12.3032 271.574C12.1092 271.416 11.8757 271.306 11.6028 271.243L11.6028 269.808C12.0927 269.86 12.5301 270.02 12.9148 270.286C13.2996 270.553 13.6021 270.909 13.8224 271.357C14.0427 271.801 14.1529 272.322 14.1529 272.92ZM14.1677 266.026C14.1677 266.506 14.0789 266.94 13.9013 267.328C13.7205 267.716 13.4591 268.023 13.1171 268.25C12.7751 268.474 12.3558 268.586 11.8593 268.586C11.4318 268.586 11.0799 268.504 10.8037 268.339C10.5275 268.175 10.3088 267.953 10.1477 267.673C9.98653 267.394 9.86486 267.081 9.78265 266.736C9.70044 266.391 9.63796 266.039 9.59522 265.68C9.5426 265.227 9.49985 264.858 9.46697 264.576C9.4308 264.293 9.37325 264.087 9.29433 263.959C9.21541 263.831 9.08716 263.767 8.90959 263.767L8.87506 263.767C8.44428 263.767 8.11051 263.888 7.87375 264.132C7.63699 264.372 7.5186 264.73 7.5186 265.207C7.5186 265.703 7.62877 266.095 7.84909 266.381C8.06612 266.664 8.30782 266.859 8.57417 266.968L8.25849 268.354C7.79812 268.189 7.42653 267.949 7.14373 267.634C6.85764 267.315 6.65047 266.948 6.52223 266.534C6.39069 266.119 6.32492 265.684 6.32492 265.227C6.32492 264.924 6.3611 264.603 6.43344 264.265C6.5025 263.923 6.63074 263.604 6.81818 263.308C7.00562 263.009 7.27362 262.764 7.62219 262.573C7.96747 262.382 8.41633 262.287 8.96878 262.287L14 262.287L14 263.727L12.9642 263.727L12.9642 263.786C13.1549 263.882 13.3423 264.025 13.5265 264.215C13.7106 264.406 13.8635 264.651 13.9852 264.95C14.1069 265.25 14.1677 265.608 14.1677 266.026ZM12.9839 265.705C12.9839 265.297 12.9033 264.949 12.7422 264.659C12.5811 264.367 12.3706 264.145 12.1108 263.993C11.8478 263.839 11.5666 263.762 11.2674 263.762L10.2907 263.762C10.3433 263.814 10.3926 263.916 10.4387 264.067C10.4814 264.215 10.5193 264.385 10.5521 264.576C10.5817 264.766 10.6097 264.952 10.636 265.133C10.659 265.314 10.6787 265.465 10.6952 265.587C10.7314 265.873 10.7922 266.134 10.8777 266.371C10.9632 266.604 11.0865 266.792 11.2476 266.933C11.4055 267.071 11.6159 267.14 11.879 267.14C12.244 267.14 12.5202 267.006 12.7077 266.736C12.8918 266.466 12.9839 266.123 12.9839 265.705ZM6.42357 260.322L6.42357 258.848L14.4933 258.848C14.9997 258.848 15.4272 258.94 15.7757 259.124C16.1243 259.305 16.389 259.574 16.5699 259.933C16.7507 260.288 16.8412 260.727 16.8412 261.25C16.8412 261.302 16.8412 261.352 16.8412 261.398C16.8412 261.447 16.8395 261.498 16.8362 261.551L15.5686 261.551C15.5686 261.505 15.5686 261.463 15.5686 261.427C15.5686 261.394 15.5686 261.357 15.5686 261.314C15.5686 260.965 15.4748 260.714 15.2874 260.559C15.1032 260.401 14.8352 260.322 14.4834 260.322L6.42357 260.322ZM5.25456 259.592C5.25456 259.849 5.16906 260.069 4.99806 260.253C4.82378 260.434 4.61661 260.525 4.37656 260.525C4.13322 260.525 3.92605 260.434 3.75506 260.253C3.58077 260.069 3.49363 259.849 3.49363 259.592C3.49363 259.336 3.58077 259.117 3.75506 258.936C3.92605 258.752 4.13322 258.66 4.37656 258.66C4.61661 258.66 4.82378 258.752 4.99806 258.936C5.16906 259.117 5.25456 259.336 5.25456 259.592ZM10.858 252.064L6.42357 252.064L6.42357 250.584L14 250.584L14 252.034L12.6879 252.034L12.6879 252.113C13.0924 252.288 13.4295 252.567 13.6991 252.952C13.9655 253.333 14.0986 253.809 14.0986 254.377C14.0986 254.864 13.9918 255.295 13.778 255.67C13.561 256.041 13.2404 256.334 12.8162 256.548C12.392 256.758 11.8675 256.863 11.2427 256.863L6.42357 256.863L6.42357 255.389L11.0651 255.389C11.5814 255.389 11.9924 255.246 12.2983 254.959C12.6041 254.673 12.757 254.302 12.757 253.845C12.757 253.569 12.6879 253.294 12.5498 253.021C12.4117 252.745 12.2029 252.516 11.9234 252.335C11.6439 252.151 11.2887 252.061 10.858 252.064ZM32.1529 295.743C32.1529 296.49 31.9934 297.133 31.6745 297.672C31.3522 298.208 30.9 298.622 30.318 298.915C29.7327 299.204 29.047 299.349 28.2611 299.349C27.4851 299.349 26.8011 299.204 26.2092 298.915C25.6173 298.622 25.1552 298.214 24.8231 297.692C24.491 297.165 24.3249 296.55 24.3249 295.847C24.3249 295.419 24.3956 295.005 24.537 294.604C24.6784 294.203 24.9004 293.843 25.2029 293.524C25.5055 293.205 25.8984 292.953 26.3818 292.769C26.8619 292.585 27.4456 292.493 28.1329 292.493L28.6557 292.493L28.6557 298.515L27.5508 298.515L27.5508 293.938C27.1628 293.938 26.8192 294.017 26.5199 294.175C26.2174 294.332 25.979 294.554 25.8047 294.841C25.6304 295.123 25.5433 295.455 25.5433 295.837C25.5433 296.251 25.6452 296.613 25.8491 296.922C26.0497 297.228 26.3127 297.465 26.6383 297.632C26.9606 297.797 27.3108 297.879 27.6889 297.879L28.5521 297.879C29.0585 297.879 29.4893 297.79 29.8445 297.613C30.1996 297.432 30.4709 297.18 30.6583 296.858C30.8425 296.536 30.9346 296.159 30.9346 295.728C30.9346 295.449 30.8951 295.194 30.8162 294.964C30.734 294.734 30.6123 294.535 30.4512 294.367C30.29 294.199 30.0911 294.071 29.8543 293.982L30.1059 292.586C30.5169 292.698 30.877 292.899 31.1861 293.188C31.4919 293.474 31.7304 293.834 31.9013 294.268C32.0691 294.699 32.1529 295.191 32.1529 295.743ZM26.2733 285.179L26.5101 286.516C26.3391 286.571 26.1763 286.66 26.0217 286.782C25.8672 286.9 25.7406 287.061 25.6419 287.265C25.5433 287.469 25.4939 287.724 25.4939 288.03C25.4939 288.448 25.5877 288.796 25.7751 289.076C25.9592 289.355 26.1977 289.495 26.4903 289.495C26.7435 289.495 26.9474 289.401 27.102 289.214C27.2565 289.026 27.3831 288.724 27.4818 288.306L27.758 287.103C27.9191 286.405 28.1674 285.886 28.5028 285.544C28.8382 285.202 29.2739 285.031 29.8099 285.031C30.2637 285.031 30.6682 285.162 31.0234 285.425C31.3752 285.685 31.6514 286.049 31.852 286.516C32.0526 286.979 32.1529 287.517 32.1529 288.129C32.1529 288.977 31.972 289.669 31.6103 290.205C31.2453 290.741 30.7274 291.07 30.0566 291.192L29.8395 289.766C30.2111 289.677 30.4923 289.495 30.683 289.219C30.8704 288.942 30.9642 288.582 30.9642 288.138C30.9642 287.655 30.8639 287.269 30.6633 286.979C30.4594 286.69 30.2111 286.545 29.9185 286.545C29.6817 286.545 29.4827 286.634 29.3216 286.812C29.1605 286.986 29.0388 287.254 28.9566 287.616L28.6754 288.898C28.5143 289.605 28.2578 290.128 27.906 290.467C27.5541 290.802 27.1085 290.97 26.5692 290.97C26.122 290.97 25.7307 290.845 25.3953 290.595C25.0599 290.345 24.7985 290 24.611 289.559C24.4203 289.118 24.3249 288.614 24.3249 288.045C24.3249 287.226 24.5025 286.581 24.8576 286.111C25.2095 285.641 25.6814 285.33 26.2733 285.179ZM32.1529 280.218C32.1529 280.951 31.9868 281.583 31.6547 282.112C31.3193 282.638 30.8573 283.043 30.2687 283.325C29.68 283.608 29.0059 283.75 28.2463 283.75C27.4768 283.75 26.7978 283.605 26.2092 283.316C25.6173 283.026 25.1552 282.618 24.8231 282.092C24.491 281.566 24.3249 280.946 24.3249 280.233C24.3249 279.657 24.4318 279.144 24.6455 278.694C24.856 278.243 25.152 277.88 25.5334 277.604C25.9149 277.324 26.3604 277.158 26.8701 277.105L26.8701 278.541C26.515 278.62 26.2092 278.801 25.9527 279.083C25.6962 279.363 25.5679 279.738 25.5679 280.208C25.5679 280.619 25.6764 280.979 25.8935 281.288C26.1072 281.594 26.413 281.833 26.8109 282.004C27.2055 282.175 27.6725 282.26 28.2118 282.26C28.7642 282.26 29.241 282.176 29.6422 282.008C30.0434 281.841 30.3542 281.604 30.5745 281.298C30.7948 280.989 30.905 280.626 30.905 280.208C30.905 279.929 30.854 279.675 30.7521 279.448C30.6468 279.218 30.4972 279.026 30.3032 278.871C30.1092 278.714 29.8757 278.603 29.6028 278.541L29.6028 277.105C30.0927 277.158 30.5301 277.318 30.9148 277.584C31.2996 277.85 31.6021 278.207 31.8224 278.654C32.0427 279.098 32.1529 279.619 32.1529 280.218ZM32 275.528L24.4236 275.528L24.4236 274.103L25.6271 274.103L25.6271 274.024C25.2194 273.886 24.8987 273.642 24.6653 273.294C24.4285 272.942 24.3101 272.544 24.3101 272.1C24.3101 272.008 24.3134 271.9 24.32 271.775C24.3266 271.646 24.3348 271.546 24.3447 271.474L25.7554 271.474C25.7389 271.533 25.7208 271.638 25.7011 271.789C25.6781 271.941 25.6666 272.092 25.6666 272.243C25.6666 272.592 25.7406 272.903 25.8885 273.175C26.0332 273.445 26.2355 273.659 26.4953 273.817C26.7517 273.975 27.0444 274.053 27.3733 274.053L32 274.053L32 275.528ZM32 270.197L24.4236 270.197L24.4236 268.723L32 268.723L32 270.197ZM23.2546 269.453C23.2546 269.709 23.1691 269.929 22.9981 270.114C22.8238 270.294 22.6166 270.385 22.3766 270.385C22.1332 270.385 21.9261 270.294 21.7551 270.114C21.5808 269.929 21.4936 269.709 21.4936 269.453C21.4936 269.196 21.5808 268.977 21.7551 268.797C21.9261 268.612 22.1332 268.52 22.3766 268.52C22.6166 268.52 22.8238 268.612 22.9981 268.797C23.1691 268.977 23.2546 269.196 23.2546 269.453ZM24.4236 263.202L25.6074 263.202L25.6074 267.34L24.4236 267.34L24.4236 263.202ZM22.6084 266.23L22.6084 264.756L29.7754 264.756C30.0615 264.756 30.2769 264.713 30.4216 264.627C30.563 264.542 30.66 264.432 30.7126 264.297C30.7619 264.159 30.7866 264.009 30.7866 263.848C30.7866 263.73 30.7784 263.626 30.7619 263.537C30.7455 263.448 30.7323 263.379 30.7225 263.33L31.9408 263.064C31.9737 263.149 32.0066 263.271 32.0395 263.429C32.0756 263.587 32.0954 263.784 32.0986 264.021C32.1052 264.409 32.0362 264.77 31.8915 265.106C31.7468 265.441 31.5232 265.712 31.2207 265.92C30.9181 266.127 30.5383 266.23 30.0812 266.23L22.6084 266.23ZM32.1529 258.46C32.1529 259.171 31.9901 259.791 31.6646 260.32C31.339 260.849 30.8836 261.26 30.2983 261.553C29.7129 261.846 29.0289 261.992 28.2463 261.992C27.4604 261.992 26.7731 261.846 26.1845 261.553C25.5959 261.26 25.1388 260.849 24.8132 260.32C24.4877 259.791 24.3249 259.171 24.3249 258.46C24.3249 257.75 24.4877 257.13 24.8132 256.601C25.1388 256.071 25.5959 255.66 26.1845 255.368C26.7731 255.075 27.4604 254.929 28.2463 254.929C29.0289 254.929 29.7129 255.075 30.2983 255.368C30.8836 255.66 31.339 256.071 31.6646 256.601C31.9901 257.13 32.1529 257.75 32.1529 258.46ZM30.9148 258.455C30.9148 257.995 30.7932 257.614 30.5498 257.311C30.3065 257.009 29.9826 256.785 29.5781 256.64C29.1736 256.492 28.7281 256.418 28.2414 256.418C27.758 256.418 27.3141 256.492 26.9096 256.64C26.5018 256.785 26.1746 257.009 25.928 257.311C25.6814 257.614 25.5581 257.995 25.5581 258.455C25.5581 258.919 25.6814 259.304 25.928 259.61C26.1746 259.912 26.5018 260.137 26.9096 260.285C27.3141 260.43 27.758 260.502 28.2414 260.502C28.7281 260.502 29.1736 260.43 29.5781 260.285C29.9826 260.137 30.3065 259.912 30.5498 259.61C30.7932 259.304 30.9148 258.919 30.9148 258.455ZM23.4124 259.067L21.1385 257.913L21.1385 256.359L23.4124 257.888L23.4124 259.067ZM32 253.282L24.4236 253.282L24.4236 251.857L25.6271 251.857L25.6271 251.778C25.2194 251.64 24.8987 251.397 24.6653 251.048C24.4285 250.696 24.3101 250.298 24.3101 249.854C24.3101 249.762 24.3134 249.654 24.32 249.529C24.3266 249.4 24.3348 249.3 24.3447 249.228L25.7554 249.228C25.7389 249.287 25.7208 249.392 25.7011 249.544C25.6781 249.695 25.6666 249.846 25.6666 249.997C25.6666 250.346 25.7406 250.657 25.8885 250.93C26.0332 251.199 26.2355 251.413 26.4953 251.571C26.7517 251.729 27.0444 251.808 27.3732 251.808L32 251.808L32 253.282ZM32 247.952L24.4236 247.952L24.4236 246.477L32 246.477L32 247.952ZM23.2546 247.207C23.2546 247.463 23.1691 247.684 22.9981 247.868C22.8238 248.049 22.6166 248.139 22.3766 248.139C22.1332 248.139 21.9261 248.049 21.7551 247.868C21.5808 247.684 21.4936 247.463 21.4936 247.207C21.4936 246.95 21.5808 246.732 21.7551 246.551C21.9261 246.367 22.1332 246.274 22.3766 246.274C22.6166 246.274 22.8238 246.367 22.9981 246.551C23.1691 246.732 23.2546 246.95 23.2546 247.207ZM32.1529 241.301C32.1529 242.012 31.9901 242.631 31.6646 243.161C31.339 243.69 30.8836 244.101 30.2983 244.394C29.7129 244.687 29.0289 244.833 28.2463 244.833C27.4604 244.833 26.7731 244.687 26.1845 244.394C25.5959 244.101 25.1388 243.69 24.8132 243.161C24.4877 242.631 24.3249 242.012 24.3249 241.301C24.3249 240.591 24.4877 239.971 24.8132 239.442C25.1388 238.912 25.5959 238.501 26.1845 238.208C26.7731 237.916 27.4604 237.769 28.2463 237.769C29.0289 237.769 29.7129 237.916 30.2983 238.208C30.8836 238.501 31.339 238.912 31.6646 239.442C31.9901 239.971 32.1529 240.591 32.1529 241.301ZM30.9148 241.296C30.9148 240.836 30.7932 240.454 30.5498 240.152C30.3065 239.849 29.9826 239.626 29.5781 239.481C29.1736 239.333 28.7281 239.259 28.2414 239.259C27.758 239.259 27.3141 239.333 26.9096 239.481C26.5018 239.626 26.1746 239.849 25.928 240.152C25.6814 240.454 25.5581 240.836 25.5581 241.296C25.5581 241.76 25.6814 242.145 25.928 242.451C26.1746 242.753 26.5018 242.978 26.9096 243.126C27.3141 243.271 27.758 243.343 28.2414 243.343C28.7281 243.343 29.1736 243.271 29.5781 243.126C29.9826 242.978 30.3065 242.753 30.5498 242.451C30.7932 242.145 30.9148 241.76 30.9148 241.296Z" fill="#252A31"/>
</svg>
