<svg width="26" height="25" viewBox="0 0 26 25" fill="none" xmlns="http://www.w3.org/2000/svg">
<rect x="0.810822" y="0.243286" width="24.3243" height="24.3243" rx="4.86486" fill="#336AE9"/>
<path d="M16.5 15C17.603 15 18.5 14.103 18.5 13C18.5 11.897 17.603 11 16.5 11C15.397 11 14.5 11.897 14.5 13C14.5 14.103 15.397 15 16.5 15ZM16.5 12C17.0515 12 17.5 12.4485 17.5 13C17.5 13.5515 17.0515 14 16.5 14C15.9485 14 15.5 13.5515 15.5 13C15.5 12.4485 15.9485 12 16.5 12ZM20 18.9C20 19.1765 19.776 19.4 19.5 19.4C19.224 19.4 19 19.1765 19 18.9C19 17.5215 17.8785 16.4 16.5 16.4C15.1215 16.4 14 17.5215 14 18.9C14 19.1765 13.776 19.4 13.5 19.4C13.224 19.4 13 19.1765 13 18.9C13 16.9705 14.57 15.4 16.5 15.4C18.43 15.4 20 16.9705 20 18.9Z" fill="white"/>
<path d="M9.50001 6.2C9.03588 6.2 8.59076 6.38964 8.26257 6.72721C7.93438 7.06477 7.75001 7.52261 7.75001 8V18.8C7.75001 18.9591 7.68855 19.1117 7.57916 19.2243C7.46976 19.3368 7.32139 19.4 7.16668 19.4C7.01197 19.4 6.86359 19.3368 6.7542 19.2243C6.6448 19.1117 6.58334 18.9591 6.58334 18.8V8C6.58427 7.20464 6.89186 6.44213 7.43864 5.87973C7.98542 5.31733 8.72675 5.00095 9.50001 5H13C13.7733 5.00095 14.5146 5.31733 15.0614 5.87973C15.6082 6.44213 15.9158 7.20464 15.9167 8V9.2C15.9167 9.35913 15.8552 9.51174 15.7458 9.62426C15.6364 9.73679 15.4881 9.8 15.3333 9.8C15.1786 9.8 15.0303 9.73679 14.9209 9.62426C14.8115 9.51174 14.75 9.35913 14.75 9.2V8C14.75 7.52261 14.5656 7.06477 14.2374 6.72721C13.9093 6.38964 13.4641 6.2 13 6.2H9.50001ZM10.6667 8V8.6C10.6667 8.75913 10.6052 8.91174 10.4958 9.02426C10.3864 9.13679 10.2381 9.2 10.0833 9.2H9.50001C9.3453 9.2 9.19693 9.13679 9.08753 9.02426C8.97814 8.91174 8.91668 8.75913 8.91668 8.6V8C8.91668 7.84087 8.97814 7.68826 9.08753 7.57574C9.19693 7.46321 9.3453 7.4 9.50001 7.4H10.0833C10.2381 7.4 10.3864 7.46321 10.4958 7.57574C10.6052 7.68826 10.6667 7.84087 10.6667 8ZM10.6667 11V11.6C10.6667 11.7591 10.6052 11.9117 10.4958 12.0243C10.3864 12.1368 10.2381 12.2 10.0833 12.2H9.50001C9.3453 12.2 9.19693 12.1368 9.08753 12.0243C8.97814 11.9117 8.91668 11.7591 8.91668 11.6V11C8.91668 10.8409 8.97814 10.6883 9.08753 10.5757C9.19693 10.4632 9.3453 10.4 9.50001 10.4H10.0833C10.2381 10.4 10.3864 10.4632 10.4958 10.5757C10.6052 10.6883 10.6667 10.8409 10.6667 11ZM10.6667 14V14.6C10.6667 14.7591 10.6052 14.9117 10.4958 15.0243C10.3864 15.1368 10.2381 15.2 10.0833 15.2H9.50001C9.3453 15.2 9.19693 15.1368 9.08753 15.0243C8.97814 14.9117 8.91668 14.7591 8.91668 14.6V14C8.91668 13.8409 8.97814 13.6883 9.08753 13.5757C9.19693 13.4632 9.3453 13.4 9.50001 13.4H10.0833C10.2381 13.4 10.3864 13.4632 10.4958 13.5757C10.6052 13.6883 10.6667 13.8409 10.6667 14ZM10.6667 17V17.6C10.6667 17.7591 10.6052 17.9117 10.4958 18.0243C10.3864 18.1368 10.2381 18.2 10.0833 18.2H9.50001C9.3453 18.2 9.19693 18.1368 9.08753 18.0243C8.97814 17.9117 8.91668 17.7591 8.91668 17.6V17C8.91668 16.8409 8.97814 16.6883 9.08753 16.5757C9.19693 16.4632 9.3453 16.4 9.50001 16.4H10.0833C10.2381 16.4 10.3864 16.4632 10.4958 16.5757C10.6052 16.6883 10.6667 16.8409 10.6667 17ZM13 7.4C13.1547 7.4 13.3031 7.46321 13.4125 7.57574C13.5219 7.68826 13.5833 7.84087 13.5833 8V8.6C13.5833 8.75913 13.5219 8.91174 13.4125 9.02426C13.3031 9.13679 13.1547 9.2 13 9.2H12.4167C12.262 9.2 12.1136 9.13679 12.0042 9.02426C11.8948 8.91174 11.8333 8.75913 11.8333 8.6V8C11.8333 7.84087 11.8948 7.68826 12.0042 7.57574C12.1136 7.46321 12.262 7.4 12.4167 7.4H13Z" fill="white"/>
<path d="M13.4125 10.5757C13.3031 10.4632 13.1547 10.4 13 10.4H12.4167C12.262 10.4 12.1136 10.4632 12.0042 10.5757C11.8948 10.6883 11.8333 10.8409 11.8333 11V11.6C11.8333 11.7591 11.8948 11.9117 12.0042 12.0243C12.1136 12.1368 12.262 12.2 12.4167 12.2H13C13.1547 12.2 13.3031 12.1368 13.4125 12.0243C13.5219 11.9117 13.5833 11.7591 13.5833 11.6V11C13.5833 10.8409 13.5219 10.6883 13.4125 10.5757Z" fill="white"/>
<path d="M13.4125 13.5757C13.3031 13.4632 13.1547 13.4 13 13.4H12.4167C12.262 13.4 12.1136 13.4632 12.0042 13.5757C11.8948 13.6883 11.8333 13.8409 11.8333 14V14.6C11.8333 14.7591 11.8948 14.9117 12.0042 15.0243C12.1136 15.1368 12.262 15.2 12.4167 15.2H13C13.1547 15.2 13.3031 15.1368 13.4125 15.0243C13.5219 14.9117 13.5833 14.7591 13.5833 14.6V14C13.5833 13.8409 13.5219 13.6883 13.4125 13.5757Z" fill="white"/>
</svg>
