<svg width="15" height="15" viewBox="0 0 15 15" fill="none" xmlns="http://www.w3.org/2000/svg">
<mask id="mask0_224_1243" style="mask-type:alpha" maskUnits="userSpaceOnUse" x="0" y="0" width="15" height="15">
<rect width="15" height="15" fill="#D9D9D9"/>
</mask>
<g mask="url(#mask0_224_1243)">
<path d="M7.07813 13.9395C6.23344 13.8562 5.44349 13.64 4.70828 13.2911C3.97297 12.9421 3.33505 12.4846 2.79453 11.9184C2.25401 11.3524 1.8276 10.6952 1.51531 9.94702C1.20302 9.19879 1.04688 8.38311 1.04688 7.49999C1.04688 6.61686 1.21193 5.79191 1.54203 5.02514C1.87224 4.25837 2.32427 3.58853 2.89812 3.01561H1.48641V1.35936H5.82812V5.70108H4.17188V4.10389C3.71667 4.52691 3.35807 5.02874 3.09609 5.60936C2.83411 6.18999 2.70312 6.8202 2.70312 7.49999C2.70312 8.73415 3.1224 9.79973 3.96094 10.6967C4.79948 11.5937 5.83854 12.1203 7.07813 12.2766V13.9395ZM6.60938 10.5605L3.83625 7.78936L4.90562 6.72014L6.60938 8.42389L10.0856 4.94764L11.1548 6.02374L6.60938 10.5605ZM9.17188 13.6406V9.29889H10.8281V10.8961C11.2833 10.4685 11.6419 9.96551 11.9039 9.38717C12.1659 8.80884 12.2969 8.17978 12.2969 7.49999C12.2969 6.26582 11.8776 5.20025 11.0391 4.30327C10.2005 3.40629 9.16146 2.87967 7.92188 2.72342V1.06046C9.62292 1.22848 11.0534 1.92165 12.2133 3.13999C13.3732 4.35822 13.9531 5.81155 13.9531 7.49999C13.9531 8.38311 13.7881 9.20806 13.458 9.97483C13.1278 10.7416 12.6757 11.4114 12.1019 11.9844H13.5136V13.6406H9.17188Z" fill="#5F738C"/>
</g>
</svg>
